<?xml version="1.0" encoding="UTF-8"?><svg id="Calque_1" xmlns="http://www.w3.org/2000/svg" viewBox="0 0 449.31 281.19"><defs><style>.cls-1{fill:#fff;stroke:#4b68af;stroke-miterlimit:10;stroke-width:4px;}.cls-2{fill:#4a67ae;stroke-width:0px;}</style></defs><path class="cls-1" d="m291.87,25.41c-.09-3.46,2.79-5.04,5.49-4.76l-.67-14.81-.02-.53h-19.94l-82.86,178.94L108.94,5.31h-22.01l107.2,226.95,82.86-179.97.56,12.43"/><path class="cls-1" d="m57.42,225.39c.03.58.2-5.93.51-19.57l6.73-153.27,103.94,219.55c2.79-2.85,5.4-5.8,8.91-7.83.63-.36,1.25-.57,1.85-.66l4.4-9.02L65.7,5.31l-18.9-.51c-15.88-.17-30.81-1.03-44.8-2.57v4.62c18.64,4.28,33.05,12.75,43.24,25.42l-7.51,175.35c-1.9,38.86-13.81,61.1-35.73,66.75v4.62c21.58-2.05,36.51-3.08,44.8-3.08,6.21,0,18.99.77,38.32,2.31,4.66.51,7.08.77,7.25.77v-4.62c-23.15-3.06-34.8-19.39-34.95-48.98Z"/><path class="cls-2" d="m230.31,149.65l-9.72,21.74m0,0l-14.05,31.41c-10.09,22.47-19.68,39.02-28.76,49.66-9.08,10.64-19.95,18.08-32.59,22.34v5.98h104.74v-6.18c-10.23-1.99-18.46-4.62-24.72-7.88-6.26-3.26-10.97-7.38-14.13-12.37-3.16-4.99-4.74-10.93-4.74-17.85,0-8.11,2.69-18.41,8.07-30.91l11.3-25.53h103.93l22.4,50.46c4.3,9.97,6.46,17.15,6.46,21.54,0,8.91-4.84,15.16-14.53,18.75-4.71,1.73-12.51,2.99-23.41,3.79v6.18h128.75v-6.18c-9.28-1.99-17.02-5.45-23.21-10.37-6.19-4.92-11.7-12.23-16.55-21.94l-8.88-18.15c-.4-.8-.78-1.53-1.11-2.19-.34-.66-.6-1.3-.81-1.89-.2-.6-.44-.96-.71-1.1L300.99,3.36h-5.25l-65.43,146.29m-.97,22.04l.58-1.31m127.57,100.23c6.59-6.91,9.89-13.23,9.89-18.95,0-4.12-2.09-10.64-6.26-19.54l-2.02-4.39-77.7-172.91,11.5-26.13,86.58,192.46c5.92,12.9,11.1,22.97,15.54,30.21,4.44,7.25,9.69,13.66,15.74,19.25h-53.28Z"/><path class="cls-2" d="m210.78,270.6h-40.97c6.86-5.05,12.31-10,16.35-14.86,4.03-4.85,8.13-11.26,12.31-19.24-.13,1.33-.2,3.12-.2,5.38,0,5.06.94,9.74,2.82,14.06,1.89,4.33,5.11,9.21,9.69,14.66Z"/></svg>